<?xml version="1.0" encoding="UTF-8" standalone="no"?>
<!-- Created with Inkscape (http://www.inkscape.org/) -->

<svg
   width="210mm"
   height="297mm"
   viewBox="0 0 210 297"
   version="1.1"
   id="svg1"
   xml:space="preserve"
   inkscape:version="1.3.2 (091e20e, 2023-11-25, custom)"
   sodipodi:docname="edited svg2.svg"
   xmlns:inkscape="http://www.inkscape.org/namespaces/inkscape"
   xmlns:sodipodi="http://sodipodi.sourceforge.net/DTD/sodipodi-0.dtd"
   xmlns="http://www.w3.org/2000/svg"
   xmlns:svg="http://www.w3.org/2000/svg"><sodipodi:namedview
     id="namedview1"
     pagecolor="#ffffff"
     bordercolor="#000000"
     borderopacity="0.25"
     inkscape:showpageshadow="2"
     inkscape:pageopacity="0.0"
     inkscape:pagecheckerboard="0"
     inkscape:deskcolor="#d1d1d1"
     inkscape:document-units="mm"
     inkscape:zoom="0.69219276"
     inkscape:cx="394.39881"
     inkscape:cy="520.80868"
     inkscape:window-width="1920"
     inkscape:window-height="991"
     inkscape:window-x="-9"
     inkscape:window-y="-9"
     inkscape:window-maximized="1"
     inkscape:current-layer="layer1" /><defs
     id="defs1" /><g
     inkscape:label="Layer 1"
     inkscape:groupmode="layer"
     id="layer1"><g
       style="fill:#f9f9f9"
       id="g1"
       transform="matrix(5.4487049,0,0,5.2098053,25.022326,87.852925)"><path
         fill-rule="evenodd"
         clip-rule="evenodd"
         d="M 10.7668,5.33333 10.5038,5.99715 9.33974,8.9355 8.76866,10.377 7.33333,14 H 9.10751 L 9.83505,12.0326 H 13.4217 L 14.162,14 H 16 L 12.5665,5.33333 h -1.7387 z m -0.1482,4.60146 -0.2347,0.62841 h 0.7197 1.782 L 11.6348,7.2136 Z M 9.52722,4.84224 C 9.55393,4.77481 9.58574,4.71045 9.62211,4.64954 H 6.41909 V 2 H 4.926 V 4.64954 H 0.540802 V 5.99715 H 4.31466 C 3.35062,7.79015 1.75173,9.51463 0,10.4283 0.329184,10.7138 0.811203,11.2391 1.04633,11.5931 2.55118,10.6795 3.90318,9.22912 4.926,7.57316 V 12.6667 H 6.41909 V 7.51606 C 6.81951,8.15256 7.26748,8.76169 7.7521,9.32292 L 8.31996,7.88955 C 7.80191,7.29052 7.34631,6.64699 6.9834,5.99715 h 2.08628 z"
         fill="currentColor"
         id="path1"
         style="fill:#f9f9f9" /></g></g></svg>
